<svg width="40" height="52" viewBox="0 0 40 52" fill="none" xmlns="http://www.w3.org/2000/svg">
<path opacity="0.4" d="M39.395 15.558C37.0325 5.16297 27.965 0.482971 20 0.482971C20 0.482971 20 0.482971 19.9775 0.482971C12.035 0.482971 2.945 5.14047 0.582501 15.5355C-2.05 27.1455 5.06 36.978 11.495 43.1655C13.88 45.4605 20 51.108 20 51.108C20 51.108 26.12 45.4605 28.4825 43.1655C34.9175 36.978 42.0275 27.168 39.395 15.558Z" fill="#20BFB6"/>
<path d="M20 26.8305C23.9143 26.8305 27.0875 23.6573 27.0875 19.743C27.0875 15.8286 23.9143 12.6555 20 12.6555C16.0857 12.6555 12.9125 15.8286 12.9125 19.743C12.9125 23.6573 16.0857 26.8305 20 26.8305Z" fill="#20BFB6"/>
</svg>
