<svg width="136" height="25" viewBox="0 0 136 25" fill="none" xmlns="http://www.w3.org/2000/svg">
<path fill-rule="evenodd" clip-rule="evenodd" d="M11.9999 18.9553L7.31067 21.3706C6.74943 21.6596 6.05526 21.4482 5.7602 20.8984C5.64271 20.6794 5.60216 20.4287 5.64484 20.1848L6.54041 15.0693L2.74672 11.4464C2.29267 11.0128 2.28338 10.3007 2.72597 9.85587C2.90221 9.67873 3.13314 9.56346 3.38301 9.52788L8.62576 8.78154L10.9704 4.12725C11.251 3.57019 11.9394 3.34148 12.508 3.6164C12.7345 3.72588 12.9177 3.90542 13.0295 4.12725L15.3741 8.78154L20.6169 9.52788C21.2443 9.61721 21.6791 10.188 21.5879 10.8027C21.5516 11.0475 21.434 11.2738 21.2531 11.4464L17.4595 15.0693L18.355 20.1848C18.4622 20.7971 18.0425 21.3786 17.4175 21.4836C17.1687 21.5254 16.9127 21.4857 16.6892 21.3706L11.9999 18.9553Z" fill="#FFBD3D"/>
<path fill-rule="evenodd" clip-rule="evenodd" d="M39.9999 18.9553L35.3107 21.3706C34.7494 21.6596 34.0553 21.4482 33.7602 20.8984C33.6427 20.6794 33.6022 20.4287 33.6448 20.1848L34.5404 15.0693L30.7467 11.4464C30.2927 11.0128 30.2834 10.3007 30.726 9.85587C30.9022 9.67873 31.1331 9.56346 31.383 9.52788L36.6258 8.78154L38.9704 4.12725C39.251 3.57019 39.9394 3.34148 40.508 3.6164C40.7345 3.72588 40.9177 3.90542 41.0295 4.12725L43.3741 8.78154L48.6169 9.52788C49.2443 9.61721 49.6791 10.188 49.5879 10.8027C49.5516 11.0475 49.434 11.2738 49.2531 11.4464L45.4595 15.0693L46.355 20.1848C46.4622 20.7971 46.0425 21.3786 45.4175 21.4836C45.1687 21.5254 44.9127 21.4857 44.6892 21.3706L39.9999 18.9553Z" fill="#FFBD3D"/>
<path fill-rule="evenodd" clip-rule="evenodd" d="M67.9999 18.9553L63.3107 21.3706C62.7494 21.6596 62.0553 21.4482 61.7602 20.8984C61.6427 20.6794 61.6022 20.4287 61.6448 20.1848L62.5404 15.0693L58.7467 11.4464C58.2927 11.0128 58.2834 10.3007 58.726 9.85587C58.9022 9.67873 59.1331 9.56346 59.383 9.52788L64.6258 8.78154L66.9704 4.12725C67.251 3.57019 67.9394 3.34148 68.508 3.6164C68.7345 3.72588 68.9177 3.90542 69.0295 4.12725L71.3741 8.78154L76.6169 9.52788C77.2443 9.61721 77.6791 10.188 77.5879 10.8027C77.5516 11.0475 77.434 11.2738 77.2531 11.4464L73.4595 15.0693L74.355 20.1848C74.4622 20.7971 74.0425 21.3786 73.4175 21.4836C73.1687 21.5254 72.9127 21.4857 72.6892 21.3706L67.9999 18.9553Z" fill="#FFBD3D"/>
<path fill-rule="evenodd" clip-rule="evenodd" d="M95.9999 18.9553L91.3107 21.3706C90.7494 21.6596 90.0553 21.4482 89.7602 20.8984C89.6427 20.6794 89.6022 20.4287 89.6448 20.1848L90.5404 15.0693L86.7467 11.4464C86.2927 11.0128 86.2834 10.3007 86.726 9.85587C86.9022 9.67873 87.1331 9.56346 87.383 9.52788L92.6258 8.78154L94.9704 4.12725C95.251 3.57019 95.9394 3.34148 96.508 3.6164C96.7345 3.72588 96.9177 3.90542 97.0295 4.12725L99.3741 8.78154L104.617 9.52788C105.244 9.61721 105.679 10.188 105.588 10.8027C105.552 11.0475 105.434 11.2738 105.253 11.4464L101.459 15.0693L102.355 20.1848C102.462 20.7971 102.042 21.3786 101.418 21.4836C101.169 21.5254 100.913 21.4857 100.689 21.3706L95.9999 18.9553Z" fill="#FFBD3D"/>
<path fill-rule="evenodd" clip-rule="evenodd" d="M124 18.9553L119.311 21.3706C118.749 21.6596 118.055 21.4482 117.76 20.8984C117.643 20.6794 117.602 20.4287 117.645 20.1848L118.54 15.0693L114.747 11.4464C114.293 11.0128 114.283 10.3007 114.726 9.85587C114.902 9.67873 115.133 9.56346 115.383 9.52788L120.626 8.78154L122.97 4.12725C123.251 3.57019 123.939 3.34148 124.508 3.6164C124.734 3.72588 124.918 3.90542 125.029 4.12725L127.374 8.78154L132.617 9.52788C133.244 9.61721 133.679 10.188 133.588 10.8027C133.552 11.0475 133.434 11.2738 133.253 11.4464L129.459 15.0693L130.355 20.1848C130.462 20.7971 130.042 21.3786 129.417 21.4836C129.169 21.5254 128.913 21.4857 128.689 21.3706L124 18.9553Z" fill="#EDEDED"/>
<path d="M119.311 21.3706L124 18.9553L126.698 20.3449V7.43923L125.029 4.12725C124.918 3.90542 124.734 3.72588 124.508 3.6164C123.939 3.34148 123.251 3.57019 122.97 4.12725L120.626 8.78154L115.383 9.52788C115.133 9.56346 114.902 9.67873 114.726 9.85587C114.283 10.3007 114.293 11.0128 114.747 11.4464L118.54 15.0693L117.645 20.1848C117.602 20.4287 117.643 20.6794 117.76 20.8984C118.055 21.4482 118.749 21.6596 119.311 21.3706Z" fill="#FFBD3D"/>
</svg>
